<?xml version="1.0" standalone="no"?>
<!DOCTYPE svg PUBLIC "-//W3C//DTD SVG 20010904//EN"
 "http://www.w3.org/TR/2001/REC-SVG-20010904/DTD/svg10.dtd">
<svg version="1.0" xmlns="http://www.w3.org/2000/svg"
 width="237.000000pt" height="308.000000pt" viewBox="0 0 237.000000 308.000000"
 preserveAspectRatio="xMidYMid meet">
<metadata>
Created by potrace 1.16, written by Peter Selinger 2001-2019
</metadata>
<g transform="translate(0.000000,308.000000) scale(0.100000,-0.100000)"
fill="#000000" stroke="none">
<path d="M756 3072 c-3 -5 -6 -59 -7 -121 l-1 -112 -40 -50 c-122 -155 -178
-350 -162 -565 4 -58 12 -101 20 -109 8 -7 18 -26 24 -42 l10 -28 -21 28 c-48
63 -77 15 -66 -109 9 -98 26 -115 27 -28 0 41 5 77 13 88 12 16 14 16 32 -4
18 -20 18 -21 -3 -41 -23 -21 -29 -54 -12 -64 6 -4 8 -11 5 -16 -4 -5 -1 -9 4
-9 6 0 11 5 11 10 0 6 5 10 10 10 6 0 10 -39 10 -96 l0 -96 -25 4 c-34 7 -32
-7 4 -21 24 -10 30 -20 35 -57 3 -25 15 -66 26 -92 19 -43 20 -59 13 -171 l-8
-124 -35 -28 c-35 -29 -37 -29 -129 -22 l-93 6 6 141 c4 78 14 263 22 411 18
343 17 326 15 356 -1 25 -2 25 -198 53 -109 15 -208 30 -221 33 -20 5 -22 2
-22 -41 0 -37 3 -46 18 -47 9 0 87 -10 172 -22 l155 -23 3 -79 c4 -110 -3
-148 -29 -140 -13 4 -19 2 -19 -9 0 -9 -7 -16 -15 -16 -8 0 -15 3 -15 8 0 4
-10 12 -23 17 -12 6 -23 20 -25 33 -3 21 -22 32 -22 12 0 -5 -13 -10 -29 -10
-31 0 -57 -22 -46 -40 3 -5 -1 -10 -10 -10 -9 0 -14 -4 -10 -10 4 -6 15 -6 32
1 23 8 25 7 20 -11 -6 -22 3 -26 21 -8 6 6 15 9 19 5 4 -4 1 -13 -5 -19 -19
-19 -14 -28 13 -28 14 0 25 -4 25 -9 0 -5 10 -11 23 -13 12 -2 22 -10 22 -18
0 -8 4 -21 8 -27 5 -7 5 -13 0 -13 -4 0 3 -7 15 -16 27 -19 28 -34 3 -34 -29
0 -54 -12 -42 -19 6 -4 11 -22 12 -41 2 -19 7 -41 12 -47 6 -9 5 -13 -4 -14
-8 0 -5 -4 5 -8 11 -4 21 -18 23 -30 3 -22 1 -23 -54 -19 -50 3 -58 1 -55 -14
2 -13 -5 -17 -38 -16 -26 0 -44 6 -47 14 -6 16 -39 19 -48 5 -3 -5 -19 -12
-35 -16 -31 -7 -40 -29 -16 -38 7 -3 32 -3 54 0 34 5 41 2 47 -16 4 -13 11
-18 18 -14 7 4 4 -5 -6 -20 -15 -23 -15 -27 -3 -27 10 0 13 -6 10 -15 -9 -22
-17 -18 -34 17 -8 18 -22 34 -30 36 -13 3 -12 1 1 -10 11 -9 14 -21 8 -40 -5
-21 -3 -31 9 -39 15 -9 15 -10 -2 -5 -13 5 -17 2 -12 -9 4 -13 2 -14 -14 -5
-10 5 -22 19 -25 30 -3 11 -10 20 -15 20 -5 0 -11 6 -13 13 -2 6 -3 -1 0 -18
3 -29 33 -65 63 -79 8 -3 -4 -4 -27 -1 l-43 5 0 -610 0 -610 238 2 237 3 7 70
c15 155 68 457 102 585 52 197 96 434 96 522 0 67 18 158 31 158 5 0 9 -24 9
-53 0 -95 66 -261 131 -332 23 -25 47 -62 55 -82 7 -21 13 -30 14 -20 0 9 7
17 15 17 8 0 15 6 15 13 0 9 2 9 8 -1 5 -7 26 -15 48 -19 21 -3 47 -14 57 -24
10 -11 27 -19 37 -19 13 0 27 -14 40 -40 11 -22 25 -40 31 -40 6 0 7 -5 3 -12
-4 -7 13 5 38 26 l46 38 -16 39 c-14 38 -14 40 13 81 16 23 54 67 86 98 73 70
179 268 179 334 0 30 3 37 10 26 5 -8 10 -33 10 -55 0 -22 9 -89 20 -150 11
-60 22 -164 26 -230 6 -142 12 -187 23 -180 13 7 50 -208 102 -587 l24 -168
317 0 318 0 0 718 c0 445 -4 723 -10 732 -8 13 -10 13 -10 -1 0 -22 -57 -23
-70 -1 -5 10 -10 12 -10 5 0 -8 -14 -13 -35 -13 -27 0 -35 4 -35 18 0 13 -2
14 -9 3 -6 -10 -10 -10 -16 -1 -6 9 -10 9 -16 -1 -6 -9 -6 0 -3 21 9 45 12 48
23 19 7 -17 10 -19 10 -7 1 15 10 17 60 14 32 -2 73 -10 90 -19 l31 -15 0 68
0 69 -32 5 c-88 15 -93 14 -92 -21 0 -22 -5 -33 -14 -33 -11 0 -13 9 -9 34 l5
34 -61 7 c-95 10 -124 22 -130 52 -3 15 -1 38 4 51 6 16 6 21 -2 16 -7 -4 -10
-1 -7 7 8 23 45 23 51 0 3 -12 13 -21 22 -21 11 0 15 -5 12 -14 -4 -10 -1 -13
9 -9 7 3 14 16 14 30 0 21 4 24 23 19 12 -3 25 -6 30 -6 4 0 7 -7 7 -15 0 -8
9 -19 20 -25 16 -8 22 -7 32 10 16 25 54 26 67 2 10 -18 51 -28 51 -11 0 5
-10 9 -22 10 -13 0 -17 3 -10 6 17 7 15 53 -2 53 -8 0 -18 4 -21 10 -3 5 0 7
9 4 15 -6 36 23 36 49 0 18 -42 25 -190 32 -58 3 -122 8 -142 11 -35 5 -38 8
-38 39 0 24 5 35 18 38 16 4 16 5 0 6 -10 0 -18 7 -18 14 0 10 -13 11 -57 6
-32 -4 -88 -8 -125 -8 -62 -1 -68 1 -68 20 0 25 -18 61 -36 72 -12 7 -12 8 16
101 7 22 13 89 13 150 0 113 -9 156 -53 251 -10 22 -25 56 -33 75 -17 42 -51
82 -61 73 -4 -4 -4 0 -1 9 4 9 1 19 -6 24 -8 4 -10 3 -5 -4 4 -7 3 -12 -2 -12
-5 0 -12 14 -16 32 -3 17 -14 40 -23 50 -16 18 -16 18 1 12 16 -6 17 -3 11 17
-4 13 -8 24 -9 25 0 1 -10 7 -21 13 -19 12 -18 12 5 7 180 -41 716 -157 813
-176 l37 -7 0 48 c0 42 -3 49 -22 54 -13 3 -192 43 -398 90 -206 46 -451 102
-543 124 l-168 41 -239 0 c-131 0 -241 -4 -244 -8z m462 -468 c105 -3 117 -5
148 -29 28 -22 33 -30 23 -41 -7 -8 -7 -14 -1 -14 5 0 10 -6 9 -12 -1 -41 5
-57 24 -63 17 -6 19 -9 8 -16 -12 -8 -11 -11 4 -20 9 -5 17 -14 17 -19 0 -5
-8 -6 -17 -3 -16 6 -16 5 -4 -10 9 -11 10 -17 2 -17 -16 0 -14 -28 3 -37 25
-14 -8 -45 -56 -53 -24 -5 -59 -14 -78 -20 -50 -19 -64 -23 -75 -25 -17 -2
-50 -18 -56 -27 -3 -5 -22 -11 -42 -15 -29 -4 -40 -1 -54 15 -23 26 -60 37
-169 52 -88 13 -89 13 -141 -14 -29 -14 -53 -31 -53 -37 0 -6 -9 -8 -20 -4
-11 4 -20 2 -20 -4 0 -6 4 -10 9 -9 5 2 9 -1 10 -7 1 -5 -11 -10 -26 -10 -21
0 -29 5 -31 22 -4 24 20 82 52 126 13 17 19 40 18 62 -2 29 1 35 20 40 13 3
28 17 35 30 13 29 7 32 -21 8 -19 -17 -19 -16 2 13 11 17 28 37 38 44 19 17
136 51 179 53 19 1 42 13 59 30 24 24 34 28 60 22 17 -4 82 -9 144 -11z m-447
-568 c1 -6 2 -16 3 -23 2 -17 87 -69 132 -82 31 -9 40 -8 51 7 8 9 12 11 8 5
-4 -8 0 -13 10 -13 9 0 13 5 10 10 -3 6 -1 10 5 10 7 0 9 -7 6 -16 -9 -25 14
-5 35 30 22 36 26 28 5 -12 -36 -70 -98 -98 -179 -80 -49 10 -86 38 -109 83
-11 20 -11 20 11 0 l22 -19 -11 29 c-6 16 -15 34 -19 40 -13 16 -9 42 6 42 7
0 14 -5 14 -11z m398 -8 c19 -47 24 -63 23 -70 -1 -5 3 -8 9 -8 5 0 7 -4 4
-10 -3 -5 -2 -10 4 -10 6 0 16 -10 22 -22 10 -20 10 -22 -2 -13 -8 6 -6 2 4
-7 27 -25 92 -42 159 -42 31 0 54 -4 51 -9 -3 -5 4 -4 16 2 17 10 20 9 15 -4
-9 -23 19 -18 34 6 8 12 9 18 4 15 -6 -3 -18 -3 -27 0 -14 6 -12 11 13 38 16
17 35 42 42 54 l12 24 15 -22 c8 -12 16 -32 17 -44 0 -13 6 -23 13 -23 6 0 9
7 5 16 -3 9 -2 13 2 10 10 -9 14 -109 5 -103 -4 2 -9 -1 -11 -8 -3 -9 -12 -9
-38 0 -35 13 -54 7 -30 -9 13 -8 13 -10 0 -19 -8 -5 -26 -9 -40 -8 -14 1 -35
-4 -46 -10 -35 -18 -84 -11 -90 14 -8 31 -51 67 -58 49 -4 -12 -9 -12 -33 0
-35 19 -62 19 -103 1 -25 -10 -41 -11 -67 -3 -25 8 -36 8 -42 -1 -3 -6 -26
-13 -49 -14 -45 -3 -50 -9 -27 -28 8 -7 15 -18 15 -24 0 -12 48 -63 56 -59 2
1 19 -4 38 -12 20 -8 43 -15 52 -15 10 0 14 -3 10 -7 -3 -4 -39 -7 -79 -8 -39
-1 -99 -6 -132 -10 -52 -7 -58 -6 -47 7 14 18 6 29 -16 21 -10 -3 -2 7 16 22
17 14 32 35 32 45 0 9 7 23 16 31 13 10 17 10 25 -2 5 -8 9 -9 9 -4 -1 6 -7
19 -15 29 -8 11 -15 15 -15 10 0 -17 -93 -44 -153 -44 -85 0 -111 17 -125 82
-15 71 -18 156 -6 168 7 7 17 5 31 -7 27 -24 93 -111 93 -123 0 -15 48 -25
124 -24 68 0 70 1 105 41 20 22 45 58 56 79 36 71 47 84 71 84 16 0 28 -8 33
-22z m606 -383 c107 -22 173 -46 178 -66 3 -10 2 -47 0 -83 -6 -73 -3 -71 -85
-57 -40 7 -48 5 -48 -8 -1 -15 -2 -15 -13 0 -7 9 -35 19 -64 23 -49 6 -53 5
-53 -14 0 -11 -5 -20 -11 -20 -5 0 -8 4 -5 8 2 4 1 14 -5 22 -7 13 -9 12 -9
-2 0 -13 -8 -18 -29 -18 -23 0 -30 5 -34 26 -5 30 25 108 38 96 5 -4 5 -1 1 6
-5 7 -5 33 -1 58 6 41 8 44 38 44 18 0 64 -7 102 -15z m-760 -78 c0 -20 7 -23
90 -30 120 -12 124 -13 99 -38 -15 -14 -38 -21 -85 -24 -77 -5 -160 -22 -172
-34 -14 -14 16 -40 51 -47 17 -4 32 -1 36 5 4 6 14 11 22 11 8 0 12 -4 9 -10
-3 -6 1 -7 10 -4 23 9 145 -26 145 -41 0 -18 21 -24 43 -13 24 12 21 0 -5 -23
-35 -30 -76 -50 -82 -40 -3 5 -40 7 -81 6 -41 -2 -77 0 -80 6 -4 5 -15 9 -25
9 -25 0 -50 37 -50 73 0 16 -8 41 -18 55 -38 55 -46 127 -16 139 8 3 20 1 27
-5 6 -5 24 -12 40 -16 25 -6 27 -4 27 25 0 18 3 29 8 25 4 -4 7 -18 7 -29z"/>
</g>
</svg>
