<?xml version="1.0" standalone="no"?>
<!DOCTYPE svg PUBLIC "-//W3C//DTD SVG 20010904//EN"
 "http://www.w3.org/TR/2001/REC-SVG-20010904/DTD/svg10.dtd">
<svg version="1.0" xmlns="http://www.w3.org/2000/svg"
 width="231.000000pt" height="300.000000pt" viewBox="0 0 231.000000 300.000000"
 preserveAspectRatio="xMidYMid meet">
<metadata>
Created by potrace 1.10, written by Peter Selinger 2001-2011
</metadata>
<g transform="translate(0.000000,300.000000) scale(0.100000,-0.100000)"
fill="#008080" stroke="none">
<path d="M729 2898 c-1 -129 -1 -133 -37 -177 -106 -133 -168 -312 -164 -476
1 -22 2 -68 3 -102 1 -45 6 -67 20 -82 25 -26 25 -50 1 -28 -23 21 -38 21 -46
1 -8 -20 -8 -142 0 -171 9 -33 21 -28 16 5 -5 37 16 114 30 110 20 -7 35 -40
20 -45 -24 -9 -33 -40 -18 -68 8 -16 17 -22 21 -16 15 25 26 8 23 -36 -2 -39
-6 -48 -20 -47 -10 1 -18 -2 -18 -7 0 -5 7 -9 15 -9 11 0 15 -11 15 -41 0 -37
-2 -41 -21 -36 -16 4 -18 3 -8 -9 6 -8 17 -14 24 -14 8 0 16 -18 20 -42 4 -24
16 -67 27 -96 17 -46 19 -66 12 -168 -7 -119 -10 -128 -58 -159 -16 -11 -43
-13 -109 -8 -86 6 -87 6 -87 32 0 14 5 105 10 201 5 96 13 240 16 320 4 80 10
152 15 161 8 16 5 187 -4 195 -4 4 -402 64 -424 64 -2 0 -3 -19 -3 -43 l0 -43
93 -12 c50 -6 127 -17 170 -23 l77 -11 0 -87 c0 -98 -7 -134 -25 -127 -17 6
-46 -30 -39 -49 9 -24 -10 -18 -47 15 -36 32 -35 36 5 20 32 -12 35 1 3 15
-12 6 -24 21 -25 34 -3 16 -6 20 -11 12 -4 -7 -20 -13 -36 -14 -16 -1 -33 -11
-39 -22 -6 -11 -15 -23 -20 -26 -14 -11 9 -18 24 -8 24 15 32 10 25 -13 -6
-19 -5 -21 6 -10 22 20 42 15 29 -7 -14 -28 -13 -31 15 -31 14 0 25 -4 25 -10
0 -5 9 -10 20 -10 12 0 20 -7 20 -16 0 -9 9 -31 20 -49 l20 -32 -31 -7 c-23
-4 -29 -9 -22 -18 6 -7 9 -26 9 -43 -1 -16 3 -33 9 -37 6 -5 5 -11 -3 -17 -11
-6 -10 -9 5 -13 10 -3 19 -14 20 -26 2 -20 -2 -21 -63 -15 -42 4 -64 2 -64 -5
0 -6 6 -13 13 -15 6 -3 -7 -6 -30 -6 -25 -1 -43 4 -46 12 -3 10 -11 10 -39 0
-19 -7 -42 -13 -51 -13 -24 0 -21 -25 7 -55 22 -23 24 -24 19 -6 -5 18 -1 21
31 21 30 0 37 -4 42 -25 4 -14 4 -29 1 -32 -4 -3 -2 -14 4 -24 6 -13 6 -19 -1
-19 -5 0 -13 18 -16 40 -7 42 -10 45 -34 30 -12 -7 -12 -12 -2 -22 22 -22 14
-39 -16 -33 l-27 6 22 -17 c22 -16 31 -44 15 -44 -11 0 -52 56 -52 71 0 7 -3
10 -6 7 -3 -3 -2 -22 1 -42 5 -24 17 -42 39 -56 l31 -21 -38 6 -37 6 0 -596 0
-595 230 0 230 0 4 23 c3 12 10 67 16 122 14 120 66 410 86 480 8 28 21 84 29
125 8 41 24 118 35 170 11 52 25 149 30 215 5 67 14 134 21 150 12 29 13 27
20 -40 11 -108 65 -240 126 -309 19 -21 43 -56 52 -77 12 -26 21 -35 28 -28
15 15 113 0 113 -17 0 -8 11 -16 25 -20 13 -3 27 -15 30 -25 4 -11 11 -17 16
-14 5 4 14 -5 20 -19 7 -14 17 -23 22 -19 7 4 8 -1 3 -12 -4 -11 11 -3 38 21
46 40 47 42 30 107 -7 27 49 106 107 152 50 40 159 239 169 310 8 58 11 48 30
-85 6 -47 18 -128 25 -180 8 -52 15 -136 15 -187 0 -63 4 -96 13 -105 8 -7 19
-36 25 -63 13 -55 56 -328 67 -415 3 -30 10 -80 15 -110 5 -30 12 -76 15 -102
l6 -48 310 0 309 0 0 694 c0 382 -3 702 -6 711 -5 13 -9 14 -15 4 -12 -20 -52
-22 -66 -2 -7 9 -13 11 -13 5 0 -7 -13 -12 -30 -12 -16 0 -30 5 -30 11 0 6 -7
9 -15 5 -8 -3 -15 -1 -15 5 0 6 -4 7 -10 4 -6 -4 -10 7 -10 24 0 31 13 41 24
19 5 -10 7 -10 12 0 3 6 9 10 12 8 4 -2 27 -5 52 -7 25 -1 53 -6 62 -11 10 -5
19 -4 23 2 4 6 3 10 -2 9 -18 -3 -33 2 -33 11 0 5 7 6 17 3 11 -4 14 -3 9 5
-4 7 -2 12 3 12 6 0 11 -5 11 -11 0 -5 5 -7 10 -4 6 3 10 24 10 46 0 34 -3 39
-22 39 -13 1 -40 3 -60 6 -37 6 -38 5 -34 -25 3 -25 0 -31 -16 -31 -16 0 -19
5 -13 29 7 33 -4 38 -108 50 l-57 7 6 -63 c9 -81 -20 -223 -40 -202 -3 3 -1
61 5 130 6 68 11 154 11 192 0 64 1 67 24 67 13 0 24 -6 24 -12 0 -7 12 -18
26 -25 23 -11 27 -10 31 7 7 27 53 27 60 1 7 -28 35 -36 51 -14 15 20 53 19
65 -3 9 -16 47 -19 47 -3 0 5 -4 7 -10 4 -6 -4 -10 6 -10 23 0 20 -7 32 -22
40 -23 11 -23 11 -2 11 19 1 33 23 34 53 0 10 -47 17 -165 23 -60 3 -129 8
-152 11 l-43 5 0 53 0 52 -52 -7 c-29 -4 -83 -8 -120 -8 -61 -1 -68 1 -68 18
0 11 -12 33 -26 50 -14 17 -22 36 -19 42 18 28 36 143 37 224 0 96 -10 146
-48 238 -14 32 -22 63 -18 70 4 7 4 9 -1 5 -10 -9 -45 45 -45 70 0 13 -2 14
-9 4 -7 -11 -10 -10 -15 3 -3 9 -4 21 0 26 9 15 -6 50 -19 42 -7 -4 -6 1 2 10
7 9 10 17 5 17 -5 0 -9 11 -9 25 0 20 4 24 20 19 10 -4 25 -13 33 -20 19 -20
27 -17 11 3 -13 15 -11 16 16 8 17 -4 100 -22 186 -39 122 -25 155 -35 151
-46 -3 -12 -2 -13 6 -1 8 11 23 10 90 -4 45 -10 80 -22 79 -28 -1 -5 4 -12 12
-15 9 -3 11 0 6 8 -6 10 -2 11 16 7 13 -3 49 -9 79 -13 42 -5 50 -9 35 -15
-17 -8 -17 -8 5 -6 23 2 25 7 28 54 2 42 0 52 -15 57 -10 2 -83 19 -163 36
-445 97 -580 127 -752 169 l-168 41 -240 0 -240 0 -1 -102z m398 5 c-4 -3 -10
-3 -14 0 -3 4 0 7 7 7 7 0 10 -3 7 -7z m-227 -13 c0 -5 -7 -10 -15 -10 -8 0
-15 -5 -15 -12 0 -6 -2 -9 -5 -6 -3 3 -3 13 1 22 7 17 34 22 34 6z m267 3 c-4
-3 -10 -3 -14 0 -3 4 0 7 7 7 7 0 10 -3 7 -7z m353 -83 c0 -5 -4 -10 -10 -10
-5 0 -10 5 -10 10 0 6 5 10 10 10 6 0 10 -4 10 -10z m-3 -87 c-4 -3 -7 0 -7 7
0 7 3 10 7 7 3 -4 3 -10 0 -14z m25 -20 c-6 -2 -9 -10 -6 -15 4 -7 2 -8 -4 -4
-18 11 -14 26 6 25 10 0 12 -3 4 -6z m-473 -162 c10 -6 65 -11 122 -12 109 -2
152 -16 148 -48 -1 -9 2 -34 6 -56 5 -22 9 -43 10 -47 0 -3 3 -10 8 -14 4 -4
7 -19 7 -32 0 -14 -3 -22 -7 -18 -5 4 -8 12 -8 17 0 24 -19 6 -22 -21 -2 -26
0 -30 21 -30 13 0 29 -6 35 -14 14 -17 4 -46 -18 -47 -9 -1 -31 -3 -50 -5 -19
-1 -37 -7 -40 -12 -3 -5 -24 -15 -46 -21 -22 -7 -49 -16 -60 -21 -86 -38 -93
-39 -118 -20 -25 20 -104 43 -199 58 -50 7 -63 5 -111 -16 -31 -14 -61 -35
-68 -49 -16 -30 -53 -28 -57 4 -3 21 32 52 45 39 10 -10 -9 -27 -24 -21 -13 4
-14 3 -3 -10 18 -21 24 -19 37 15 10 26 9 30 -5 30 -13 0 -12 4 7 19 23 18 23
18 1 16 -12 -1 -26 -8 -31 -16 -5 -8 -9 -9 -9 -4 1 19 29 47 40 40 9 -5 10 0
6 16 -3 13 -3 18 0 12 3 -7 16 -13 29 -13 19 0 24 7 30 40 4 21 4 48 0 59 -3
11 -1 29 5 41 7 14 7 20 0 20 -6 0 -3 11 6 24 8 14 21 23 29 20 7 -3 41 4 75
15 35 12 73 21 85 21 12 0 32 11 45 25 25 26 50 31 79 16z m-359 -227 c0 -8
-4 -14 -10 -14 -5 0 -10 9 -10 21 0 11 5 17 10 14 6 -3 10 -13 10 -21z m837
-130 c-1 -1 -10 4 -21 11 -15 12 -16 16 -5 28 12 13 15 11 21 -11 4 -14 6 -27
5 -28z m-8 -30 c8 -16 19 -32 25 -36 6 -5 2 -8 -10 -8 -26 0 -45 21 -48 55 -4
34 15 28 33 -11z m-649 -104 c12 -8 9 -10 -12 -10 -16 0 -28 5 -28 10 0 13 20
13 40 0z m-225 -10 c3 -5 4 -10 1 -10 -3 0 -8 5 -11 10 -3 6 -4 10 -1 10 3 0
8 -4 11 -10z m882 -32 c-3 -7 -5 -2 -5 12 0 14 2 19 5 13 2 -7 2 -19 0 -25z
m-52 -84 c-9 -24 -32 -57 -51 -74 -30 -26 -43 -30 -90 -30 -30 0 -65 5 -77 11
-35 18 -67 51 -67 68 0 10 3 12 8 5 14 -21 78 -38 130 -36 32 2 52 -1 52 -7 0
-6 -6 -11 -12 -12 -10 0 -10 -2 -1 -6 38 -15 112 84 115 154 l1 38 4 -34 c3
-19 -3 -54 -12 -77z m-363 59 c10 -9 18 -27 18 -40 0 -12 5 -23 11 -23 5 0 7
-4 4 -10 -3 -5 -1 -10 5 -10 6 0 8 -4 5 -10 -3 -5 -2 -10 4 -10 6 0 16 -10 22
-22 10 -20 10 -22 -2 -13 -8 6 -6 2 4 -7 26 -24 92 -42 158 -42 32 -1 63 -7
73 -15 9 -8 18 -12 19 -10 1 2 9 12 17 22 7 10 9 17 4 16 -18 -3 -34 1 -34 10
0 5 8 8 18 7 9 0 16 4 15 11 -2 7 8 29 22 49 15 22 25 30 25 20 0 -9 4 -16 9
-16 5 0 11 -9 14 -21 3 -12 9 -19 14 -16 4 3 9 -9 10 -26 1 -18 5 -41 7 -52 5
-18 0 -21 -28 -23 -20 -2 -40 4 -49 13 -21 21 -30 19 -17 -4 17 -32 12 -39
-30 -45 -22 -3 -58 -9 -80 -12 -35 -5 -41 -3 -49 17 -6 13 -23 37 -40 52 -26
26 -29 26 -24 8 6 -25 7 -25 -47 -6 -34 12 -46 12 -63 2 -12 -6 -47 -13 -77
-13 -68 -2 -144 -17 -194 -38 -44 -18 -129 -21 -172 -6 -41 15 -55 42 -63 129
-10 97 -7 106 28 85 27 -17 91 -96 91 -113 0 -16 48 -26 125 -25 66 1 71 3 98
35 16 19 40 57 54 84 43 85 61 99 95 68z m-336 -63 c25 -16 52 -30 60 -30 8 0
13 -4 10 -8 -9 -14 86 -6 96 9 8 11 9 10 4 -3 -8 -27 7 -21 26 10 10 15 18 21
18 13 0 -7 -17 -31 -39 -52 -35 -35 -44 -39 -89 -39 -79 0 -118 21 -154 85
-11 20 -10 20 10 2 20 -19 21 -18 15 5 -3 12 -13 31 -22 41 -13 16 -13 19 -1
27 11 7 16 4 18 -10 2 -11 24 -33 48 -50z m750 -8 c-17 -16 -18 -16 -5 5 7 12
15 20 18 17 3 -2 -3 -12 -13 -22z m81 11 c-4 -3 -7 0 -7 7 0 7 3 10 7 7 3 -4
3 -10 0 -14z m-50 -40 c-4 -3 -7 0 -7 7 0 7 3 10 7 7 3 -4 3 -10 0 -14z m343
-53 c0 -5 -11 -12 -25 -16 -14 -3 -25 -13 -25 -21 0 -11 7 -14 25 -11 21 4 25
1 25 -17 0 -18 -6 -22 -30 -23 -16 0 -30 4 -30 9 0 6 -4 7 -10 4 -7 -4 -7 2 0
19 6 16 6 27 0 31 -15 9 -28 -3 -25 -23 1 -9 0 -12 -2 -6 -2 6 -16 17 -30 25
-21 11 -27 11 -30 2 -6 -18 -23 -16 -23 1 0 14 16 17 140 29 19 2 36 5 38 5 1
1 2 -2 2 -8z m40 -24 c0 -11 -19 -15 -25 -6 -3 5 1 10 9 10 9 0 16 -2 16 -4z
m40 -6 c0 -5 -7 -10 -15 -10 -8 0 -15 5 -15 10 0 6 7 10 15 10 8 0 15 -4 15
-10z m60 3 c0 -5 -7 -17 -15 -27 -14 -19 -15 -19 -15 7 0 17 5 27 15 27 8 0
15 -3 15 -7z m72 -17 c5 -7 8 -7 8 -1 0 6 9 11 20 11 15 0 20 -7 20 -28 0 -15
-4 -28 -10 -28 -5 0 -10 4 -10 10 0 17 -48 22 -78 8 l-28 -14 15 31 c11 25 19
31 35 27 12 -3 24 -10 28 -16z m98 -26 c0 -10 -5 -22 -10 -25 -13 -8 -24 20
-16 41 8 20 26 9 26 -16z m-517 -5 c-3 -9 -8 -14 -10 -11 -3 3 -2 9 2 15 9 16
15 13 8 -4z m87 -5 c0 -5 -9 -10 -20 -10 -11 0 -20 5 -20 10 0 6 9 10 20 10
11 0 20 -4 20 -10z m307 -6 c-3 -3 -12 -4 -19 -1 -8 3 -5 6 6 6 11 1 17 -2 13
-5z m-1140 -54 c26 -29 101 -70 129 -70 7 0 15 -4 18 -9 3 -5 -20 -8 -52 -8
-31 1 -84 -2 -117 -5 -33 -4 -54 -3 -46 1 11 7 9 10 -8 16 -20 6 -30 35 -12
35 5 0 15 16 21 35 14 43 32 44 67 5z m850 -7 c-4 -3 -10 -3 -14 0 -3 4 0 7 7
7 7 0 10 -3 7 -7z m100 -10 c-4 -3 -7 0 -7 7 0 7 3 10 7 7 3 -4 3 -10 0 -14z
m-1610 -20 c-4 -3 -7 0 -7 7 0 7 3 10 7 7 3 -4 3 -10 0 -14z m1320 0 c-4 -3
-7 0 -7 7 0 7 3 10 7 7 3 -4 3 -10 0 -14z m88 -48 c114 -23 183 -48 188 -67 3
-9 2 -46 0 -83 l-6 -66 -58 7 c-53 6 -59 5 -59 -12 -1 -18 -2 -18 -18 2 -23
28 -112 43 -112 20 0 -9 -4 -16 -10 -16 -5 0 -10 8 -10 18 -1 16 -1 16 -11 0
-14 -25 -59 -24 -60 2 -1 11 -2 26 -3 33 -1 6 5 11 11 10 7 -2 12 5 11 15 -2
32 2 53 10 48 5 -3 7 7 4 22 -5 38 14 82 35 82 10 0 50 -7 88 -15z m-555 -57
c0 -7 5 -6 15 2 12 10 16 9 21 -4 10 -26 -2 -31 -84 -31 -85 0 -114 8 -107 28
7 16 155 22 155 5z m-170 -13 c0 -8 -4 -15 -10 -15 -5 0 -10 7 -10 15 0 8 5
15 10 15 6 0 10 -7 10 -15z m1310 -5 c0 -5 -2 -10 -4 -10 -3 0 -8 5 -11 10 -3
6 -1 10 4 10 6 0 11 -4 11 -10z m-1388 -11 c11 -6 34 -12 52 -14 17 -1 72 -6
121 -10 50 -4 94 -10 98 -12 5 -3 1 -14 -9 -24 -31 -34 -171 -23 -196 15 -5 8
-8 7 -8 -2 0 -7 11 -18 25 -24 35 -16 14 -27 -47 -24 -51 3 -91 33 -82 62 16
51 14 50 46 33z m1122 -44 c3 -8 1 -15 -4 -15 -6 0 -10 7 -10 15 0 8 2 15 4
15 2 0 6 -7 10 -15z m-1884 -120 c20 -24 6 -28 -15 -5 -10 11 -13 20 -8 20 6
0 16 -7 23 -15z m990 -9 c26 -9 70 -50 70 -66 0 -5 -14 -17 -30 -25 -27 -14
-31 -14 -36 0 -3 8 -11 12 -18 8 -25 -16 -128 -12 -159 6 -29 16 -48 52 -40
76 4 12 178 13 213 1z m-934 -62 c8 3 14 -1 14 -8 0 -17 -22 -27 -38 -17 -6 3
-14 20 -17 36 l-7 30 17 -23 c9 -13 23 -21 31 -18z m12 -101 c-10 -2 -26 -2
-35 0 -10 3 -2 5 17 5 19 0 27 -2 18 -5z m1864 -740 c3 -28 -20 -83 -34 -83
-16 0 -7 53 10 66 10 8 12 13 5 14 -7 0 -10 7 -7 15 10 24 22 17 26 -12z m45
20 c-4 -3 -10 -3 -14 0 -3 4 0 7 7 7 7 0 10 -3 7 -7z m-21 -98 c-9 -13 -16
-32 -16 -41 0 -24 -23 -88 -35 -96 -16 -12 -17 -1 -1 37 9 21 16 46 16 56 0
23 43 93 48 78 2 -5 -3 -21 -12 -34z m-58 -47 c-15 -46 -18 -47 -18 -5 0 26 4
37 14 37 12 0 13 -6 4 -32z"/>
<path d="M770 2440 c0 -7 3 -10 7 -7 3 4 3 10 0 14 -4 3 -7 0 -7 -7z"/>
<path d="M1530 2130 c0 -7 3 -10 7 -7 3 4 3 10 0 14 -4 3 -7 0 -7 -7z"/>
<path d="M1247 1869 c7 -7 15 -10 18 -7 3 3 -2 9 -12 12 -14 6 -15 5 -6 -5z"/>
<path d="M1283 1843 c4 -3 10 -3 14 0 3 4 0 7 -7 7 -7 0 -10 -3 -7 -7z"/>
<path d="M1500 1869 c0 -5 5 -7 10 -4 6 3 10 8 10 11 0 2 -4 4 -10 4 -5 0 -10
-5 -10 -11z"/>
<path d="M1495 1840 c-3 -6 1 -7 9 -4 18 7 21 14 7 14 -6 0 -13 -4 -16 -10z"/>
<path d="M933 1860 c-13 -5 -23 -12 -23 -15 0 -9 16 -5 36 10 22 16 19 18 -13
5z"/>
<path d="M878 1833 c7 -3 16 -2 19 1 4 3 -2 6 -13 5 -11 0 -14 -3 -6 -6z"/>
<path d="M1750 1439 c0 -5 5 -7 10 -4 6 3 10 8 10 11 0 2 -4 4 -10 4 -5 0 -10
-5 -10 -11z"/>
<path d="M923 1483 c4 -3 10 -3 14 0 3 4 0 7 -7 7 -7 0 -10 -3 -7 -7z"/>
<path d="M1628 2768 c9 -9 15 -9 24 0 9 9 7 12 -12 12 -19 0 -21 -3 -12 -12z"/>
<path d="M1680 2760 c0 -5 7 -10 16 -10 8 0 12 5 9 10 -3 6 -10 10 -16 10 -5
0 -9 -4 -9 -10z"/>
<path d="M1913 2713 c4 -3 10 -3 14 0 3 4 0 7 -7 7 -7 0 -10 -3 -7 -7z"/>
<path d="M2065 2680 c3 -5 8 -10 11 -10 3 0 2 5 -1 10 -3 6 -8 10 -11 10 -3 0
-2 -4 1 -10z"/>
<path d="M2205 2647 c17 -8 32 -13 34 -11 7 7 -3 12 -34 19 l-30 6 30 -14z"/>
<path d="M75 2460 c3 -5 8 -10 11 -10 2 0 4 5 4 10 0 6 -5 10 -11 10 -5 0 -7
-4 -4 -10z"/>
<path d="M2260 2090 c-8 -5 -30 -10 -48 -10 -37 0 -45 -14 -55 -91 l-6 -46 46
-7 c71 -9 73 -9 73 24 0 31 -19 43 -21 13 0 -15 -2 -15 -8 2 -10 25 -3 45 15
45 8 0 14 7 14 15 0 27 1 30 17 48 13 14 13 17 2 17 -8 0 -21 -5 -29 -10z"/>
<path d="M136 1901 c-3 -5 10 -11 29 -13 36 -4 47 5 19 16 -22 9 -42 7 -48 -3z"/>
<path d="M0 1768 c0 -68 4 -108 10 -108 7 0 7 -6 0 -19 -5 -11 -10 -35 -10
-53 l1 -33 24 39 c13 22 21 44 18 49 -3 6 -1 7 5 3 7 -4 12 -3 12 3 0 5 -5 13
-10 16 -6 4 -8 11 -5 16 9 13 -3 47 -18 52 -7 2 1 3 18 1 l30 -4 -24 19 c-16
12 -24 29 -25 52 -1 19 -7 43 -14 54 -9 16 -11 -1 -12 -87z"/>
<path d="M2302 1740 c0 -14 2 -19 5 -12 2 6 2 18 0 25 -3 6 -5 1 -5 -13z"/>
<path d="M53 1616 c-13 -20 -11 -66 3 -66 16 0 19 -17 4 -22 -6 -2 -1 -9 10
-16 19 -11 20 -10 20 33 0 25 5 45 11 45 6 0 17 7 25 15 17 16 15 17 -39 19
-16 1 -31 -3 -34 -8z"/>
<path d="M2192 1430 c0 -14 2 -19 5 -12 2 6 2 18 0 25 -3 6 -5 1 -5 -13z"/>
<path d="M2237 1434 c-8 -8 1 -24 14 -24 5 0 9 7 9 15 0 15 -12 20 -23 9z"/>
<path d="M1382 899 c-8 -12 -11 -24 -7 -27 3 -3 13 2 22 11 11 11 14 20 7 27
-6 6 -14 2 -22 -11z"/>
<path d="M720 878 c0 -15 21 -38 50 -53 8 -4 2 7 -15 26 -16 19 -31 36 -32 38
-2 2 -3 -2 -3 -11z"/>
<path d="M1410 843 c0 -51 13 -71 34 -54 13 11 16 11 16 -2 0 -8 8 -18 17 -21
15 -6 15 -8 3 -16 -12 -8 -10 -10 8 -10 22 0 21 2 -12 50 -19 28 -38 59 -41
70 -10 33 -25 23 -25 -17z"/>
</g>
</svg>
