<?xml version="1.0" standalone="no"?>
<!DOCTYPE svg PUBLIC "-//W3C//DTD SVG 20010904//EN"
 "http://www.w3.org/TR/2001/REC-SVG-20010904/DTD/svg10.dtd">
<svg version="1.0" xmlns="http://www.w3.org/2000/svg"
 width="1200.000000pt" height="1200.000000pt" viewBox="0 0 1200.000000 1200.000000"
 preserveAspectRatio="xMidYMid meet">
<metadata>
Created by potrace 1.11, written by Peter Selinger 2001-2013
</metadata>
<g transform="translate(0.000000,1200.000000) scale(0.100000,-0.100000)"
fill="#000000" stroke="none">
<path d="M0 6000 l0 -6000 6000 0 6000 0 0 6000 0 6000 -6000 0 -6000 0 0
-6000z m7304 650 c5 -5 6 -16 3 -24 -5 -12 -12 -14 -30 -7 -29 11 -102 3 -138
-15 -17 -8 -29 -24 -33 -45 -9 -45 -8 -61 4 -54 6 3 10 0 10 -9 0 -8 -6 -16
-12 -18 -9 -3 -14 -42 -17 -131 -3 -111 -1 -127 13 -127 20 0 21 -14 2 -29
-13 -11 -26 -169 -31 -382 -1 -42 -4 -80 -7 -85 -10 -19 -9 -227 2 -259 14
-42 29 -46 163 -40 87 4 107 2 107 -9 0 -9 -15 -17 -37 -20 -97 -15 -262 -25
-408 -25 -88 -1 -188 -4 -223 -9 -34 -5 -64 -6 -67 -4 -17 18 6 30 84 46 64
13 90 22 94 34 3 10 8 26 13 36 5 14 4 17 -4 12 -18 -11 -15 19 3 34 10 8 15
29 15 54 -1 129 9 567 14 575 3 5 3 51 0 102 -4 52 -7 110 -8 129 -1 30 -4 35
-23 32 -12 -2 -24 2 -28 8 -10 15 -35 -7 -35 -31 0 -10 -11 -51 -23 -91 -13
-40 -34 -109 -47 -153 -60 -206 -112 -370 -192 -605 -16 -47 -31 -104 -35
-128 -9 -62 -32 -52 -60 28 -38 108 -94 228 -109 234 -10 4 -12 14 -9 29 4 15
1 28 -9 36 -9 8 -16 23 -16 35 0 11 -9 35 -20 51 -11 17 -20 41 -20 53 0 15
-7 26 -18 29 -14 3 -18 11 -14 29 3 19 0 26 -16 31 -17 4 -20 11 -15 36 2 18
0 52 -7 77 -6 25 -13 56 -16 70 -3 14 -9 29 -15 34 -5 6 -9 18 -9 28 0 10 -7
21 -16 25 -11 4 -14 13 -10 29 4 14 2 24 -4 24 -5 0 -10 13 -10 29 0 17 -6 31
-16 35 -10 4 -13 13 -9 26 7 22 -50 139 -58 118 -2 -7 -3 -33 -1 -58 3 -40 5
-159 3 -200 -2 -40 21 -343 37 -490 2 -25 6 -72 9 -105 11 -159 21 -186 79
-220 22 -13 41 -16 81 -11 42 5 54 3 59 -9 7 -20 -22 -34 -70 -35 -22 0 -93
-1 -159 -2 -280 -4 -290 -4 -290 12 0 11 18 16 75 21 89 7 116 18 154 67 l28
37 -6 120 c-4 66 -7 139 -6 161 0 23 -6 127 -15 230 -8 104 -17 245 -18 314
-4 131 -6 138 -62 217 -23 32 -39 44 -65 49 -69 11 -115 29 -115 44 0 13 29
14 220 10 121 -2 238 -4 260 -5 39 0 40 -1 49 -45 5 -25 14 -48 19 -51 6 -4 7
-14 4 -24 -4 -9 0 -27 9 -40 9 -13 13 -29 9 -35 -4 -6 -2 -16 3 -23 9 -12 19
-46 29 -97 2 -14 11 -35 19 -47 8 -12 14 -31 14 -42 0 -10 7 -22 16 -25 10 -4
13 -13 9 -25 -3 -11 -2 -28 4 -38 15 -27 24 -57 22 -67 -2 -9 25 -83 60 -162
10 -23 26 -44 34 -48 9 -3 15 -11 14 -18 -1 -7 6 -33 16 -57 l19 -44 12 29 c7
16 24 70 39 119 59 205 66 231 75 250 8 19 20 61 26 95 6 31 28 95 36 105 4 5
8 20 8 32 0 13 8 40 18 61 28 56 55 150 49 172 -7 27 16 32 183 39 175 8 342
3 354 -9z m-2255 -108 c12 -29 21 -62 21 -72 0 -23 23 -42 44 -34 20 8 21 -12
2 -45 -12 -21 -12 -27 1 -39 8 -8 12 -21 9 -28 -3 -8 0 -11 10 -7 7 3 14 0 14
-6 0 -6 -7 -11 -15 -11 -17 0 -18 -4 -9 -49 4 -17 10 -28 15 -26 4 3 11 0 15
-6 3 -6 1 -15 -7 -20 -11 -6 -10 -14 4 -43 18 -39 28 -44 47 -21 15 18 33 20
28 3 -3 -7 -11 -13 -19 -13 -12 0 -16 -20 -10 -58 0 -5 14 -6 30 -2 38 8 46
-6 19 -40 -13 -16 -17 -29 -11 -33 6 -4 13 -17 17 -29 6 -18 12 -21 37 -16 23
4 29 2 29 -11 0 -13 -5 -16 -19 -11 -11 3 -23 0 -27 -7 -4 -6 -2 -14 4 -16 7
-2 12 -10 12 -18 0 -8 6 -14 14 -14 21 0 28 -17 17 -39 -8 -14 -7 -22 4 -31
11 -9 12 -16 5 -25 -12 -15 -3 -26 16 -18 20 7 17 -4 -7 -35 -18 -23 -19 -28
-5 -38 9 -6 13 -14 9 -17 -3 -4 0 -7 7 -7 10 0 11 -3 4 -10 -12 -12 -6 -70 8
-70 5 0 8 -8 7 -17 -3 -35 1 -43 26 -43 14 0 25 -4 25 -9 0 -5 9 -11 21 -14
17 -5 19 -9 10 -26 -6 -11 -11 -22 -11 -24 0 -10 107 -58 121 -55 8 2 16 -1
17 -7 1 -6 -35 -13 -85 -17 -49 -4 -98 -12 -110 -18 -13 -5 -36 -7 -52 -4 -15
3 -61 1 -101 -5 -54 -9 -76 -9 -86 0 -8 7 -44 10 -93 8 -98 -5 -115 13 -21 22
74 6 99 17 130 56 20 25 20 28 5 31 -12 3 -15 10 -11 25 5 19 -43 157 -64 182
-5 6 -12 33 -15 61 l-7 51 -77 5 c-123 8 -267 3 -283 -9 -7 -7 -19 -29 -27
-50 -7 -21 -24 -67 -38 -103 -34 -85 -36 -161 -6 -191 17 -18 36 -23 94 -25
68 -4 88 -8 78 -18 -5 -5 -154 -9 -194 -6 -11 0 -58 -3 -105 -9 -47 -5 -107
-13 -135 -16 -59 -7 -42 9 20 19 59 10 127 48 152 84 12 18 38 85 59 150 21
64 41 122 44 127 4 6 15 42 24 80 37 152 48 191 57 220 6 17 15 44 19 60 5 17
22 68 39 114 17 46 33 98 35 116 2 18 11 44 19 57 9 12 25 50 37 83 25 70 44
107 79 154 l25 33 22 -28 c13 -15 32 -52 43 -82z m131 -221 c0 -6 -4 -13 -10
-16 -5 -3 -10 1 -10 9 0 9 5 16 10 16 6 0 10 -4 10 -9z"/>
<path d="M6810 6600 c0 -5 7 -7 15 -4 8 4 15 8 15 10 0 2 -7 4 -15 4 -8 0 -15
-4 -15 -10z"/>
<path d="M6920 6601 c0 -5 -13 -14 -29 -21 -16 -6 -37 -20 -47 -31 -15 -17
-15 -19 -1 -19 8 0 17 3 19 8 5 11 66 52 77 52 5 0 13 5 16 10 3 6 -3 10 -14
10 -12 0 -21 -4 -21 -9z"/>
<path d="M6930 6563 c-55 -24 -100 -59 -100 -75 0 -5 10 -3 23 4 12 7 26 11
30 10 4 -1 14 3 22 10 36 33 46 39 54 34 4 -3 19 6 31 19 30 32 13 31 -60 -2z"/>
<path d="M6003 6545 c-10 -10 -9 -16 2 -25 10 -9 20 -7 39 5 14 10 23 21 20
26 -8 14 -47 10 -61 -6z"/>
<path d="M6156 6544 c-11 -8 -16 -14 -10 -14 13 0 39 18 34 24 -3 2 -14 -2
-24 -10z"/>
<path d="M7010 6550 c0 -10 -75 -56 -100 -62 -14 -3 -20 -7 -55 -36 -8 -7 -15
-22 -15 -33 0 -24 26 -22 54 4 11 9 23 17 28 17 7 0 35 21 64 48 7 7 27 11 45
10 31 -3 33 -1 35 30 1 29 -1 32 -27 32 -16 0 -29 -4 -29 -10z"/>
<path d="M6130 6500 c-50 -27 -96 -67 -88 -75 6 -7 148 81 148 91 0 9 -28 2
-60 -16z"/>
<path d="M6160 6469 l-25 -20 33 16 c17 8 32 18 32 20 0 10 -16 4 -40 -16z"/>
<path d="M6778 6479 c-25 -14 -23 -38 2 -32 11 3 20 14 20 24 0 22 1 22 -22 8z"/>
<path d="M7005 6450 c-28 -14 -61 -35 -75 -47 -13 -13 -29 -23 -35 -23 -16 0
-48 -36 -44 -49 2 -6 26 5 54 24 27 20 51 31 53 25 2 -5 13 -10 25 -10 19 0
18 -2 -8 -16 -79 -41 -115 -70 -115 -91 0 -27 6 -29 27 -7 9 8 22 13 29 10 8
-3 14 -1 14 4 0 6 7 10 15 10 9 0 27 8 42 17 14 9 38 17 52 18 25 0 26 2 29
68 2 37 -1 67 -6 67 -6 0 -26 -17 -46 -37 -19 -20 -38 -34 -41 -32 -6 7 31 48
64 72 39 26 21 25 -34 -3z m40 -79 c3 -5 1 -12 -5 -16 -5 -3 -10 1 -10 9 0 18
6 21 15 7z m-40 -41 c-3 -5 -10 -10 -16 -10 -5 0 -9 5 -9 10 0 6 7 10 16 10 8
0 12 -4 9 -10z m-35 -30 c0 -5 -4 -10 -10 -10 -5 0 -10 5 -10 10 0 6 5 10 10
10 6 0 10 -4 10 -10z"/>
<path d="M6165 6442 c-16 -9 -31 -20 -33 -24 -2 -5 -9 -8 -15 -8 -22 -1 -61
-40 -50 -51 7 -7 20 -2 41 15 16 14 34 26 39 26 5 0 22 14 38 30 32 34 25 38
-20 12z"/>
<path d="M6100 6430 c-9 -6 -10 -10 -3 -10 6 0 15 5 18 10 8 12 4 12 -15 0z"/>
<path d="M6195 6419 c-11 -17 1 -21 15 -4 8 9 8 15 2 15 -6 0 -14 -5 -17 -11z"/>
<path d="M6143 6355 c-51 -34 -69 -53 -38 -41 18 7 20 -5 3 -22 -21 -21 65 26
97 53 17 14 27 25 24 25 -11 0 -69 -31 -74 -41 -4 -5 -12 -9 -18 -9 -7 0 6 16
28 35 51 43 44 43 -22 0z"/>
<path d="M6190 6314 c-13 -16 -13 -17 0 -9 13 7 13 6 2 -7 -7 -9 -21 -14 -30
-11 -10 2 -28 -7 -42 -23 -23 -25 -23 -26 -3 -15 27 14 33 14 33 1 0 -5 -6
-10 -14 -10 -9 0 -12 -7 -9 -20 3 -11 8 -20 10 -20 12 0 103 64 103 72 0 5 -4
6 -10 3 -5 -3 -10 -2 -10 3 0 6 7 12 15 16 22 8 18 29 -5 23 -10 -3 -21 0 -22
5 -2 6 -10 2 -18 -8z m20 -49 c0 -2 -10 -10 -22 -16 -21 -11 -22 -11 -9 4 13
16 31 23 31 12z"/>
<path d="M7027 6272 c-18 -8 -26 -19 -23 -28 4 -9 -6 -22 -27 -34 -17 -10 -37
-23 -42 -28 -6 -5 -23 -17 -38 -27 -30 -20 -54 -55 -38 -55 6 0 18 8 28 18 10
9 44 35 76 56 35 24 57 45 57 57 0 11 4 19 8 19 5 0 16 6 27 13 26 20 5 26
-28 9z"/>
<path d="M6920 6236 c-20 -13 -41 -31 -49 -40 -11 -14 -11 -16 2 -16 8 0 17 7
21 15 3 8 12 15 21 15 8 0 15 3 15 8 0 4 12 15 28 24 15 10 20 17 12 17 -8 0
-31 -11 -50 -23z"/>
<path d="M6245 6200 c-3 -6 1 -7 9 -4 18 7 21 14 7 14 -6 0 -13 -4 -16 -10z"/>
<path d="M6241 6170 c-39 -22 -91 -67 -91 -78 0 -4 17 -6 38 -4 l37 4 -27 -22
c-16 -12 -28 -26 -28 -32 0 -6 8 -4 18 5 10 10 26 17 34 17 18 0 29 32 18 50
-4 7 -13 10 -19 6 -7 -5 -9 -1 -5 9 4 11 13 14 28 9 11 -4 18 -3 13 2 -4 4 3
18 15 31 26 28 15 29 -31 3z"/>
<path d="M6156 6165 c-11 -8 -15 -15 -9 -15 6 0 16 7 23 15 16 19 11 19 -14 0z"/>
<path d="M6921 6104 c-55 -41 -79 -64 -68 -64 13 0 67 33 67 41 0 6 4 8 9 5 5
-3 11 0 14 8 3 8 16 16 29 18 22 3 40 38 20 38 -6 0 -37 -21 -71 -46z"/>
<path d="M6266 6114 c-5 -14 -4 -15 9 -4 17 14 19 20 6 20 -5 0 -12 -7 -15
-16z"/>
<path d="M7025 6110 c-12 -4 -27 -15 -34 -24 -7 -9 -19 -16 -25 -16 -19 0
-120 -94 -115 -107 2 -7 45 22 94 63 120 100 121 101 80 84z"/>
<path d="M6279 6093 c-12 -16 -12 -17 1 -7 8 6 22 14 30 17 13 5 12 6 -1 6 -9
1 -23 -7 -30 -16z"/>
<path d="M6281 6069 c-50 -26 -101 -69 -101 -85 0 -18 14 -18 30 1 14 17 35
21 25 5 -9 -15 7 -12 29 5 31 24 42 17 16 -10 -12 -13 -26 -22 -30 -20 -4 2
-17 -7 -30 -20 -20 -21 -21 -25 -7 -31 9 -3 21 -2 28 2 8 5 9 3 4 -6 -5 -8 -3
-11 6 -8 8 3 14 13 14 24 0 11 8 20 20 22 17 4 18 2 5 -13 -8 -10 3 -6 25 10
22 14 38 30 35 33 -3 4 -8 6 -12 5 -5 -2 -8 2 -8 7 0 6 5 10 11 10 5 0 8 4 4
10 -3 5 -13 7 -23 4 -16 -5 -16 -5 1 9 21 18 22 27 1 27 -13 0 -14 3 -5 14 18
22 0 24 -38 5z"/>
<path d="M7040 6070 c-9 -16 -8 -18 5 -14 8 4 15 12 15 20 0 20 -7 17 -20 -6z"/>
<path d="M6981 5999 c-46 -25 -109 -76 -121 -99 -17 -31 3 -24 51 20 24 22 48
40 52 40 5 0 22 14 37 30 32 34 29 35 -19 9z"/>
<path d="M7033 5986 c-4 -7 -15 -16 -23 -19 -9 -3 -3 -6 13 -6 21 -1 27 4 27
19 0 23 -6 25 -17 6z"/>
<path d="M6306 5914 c-9 -8 -20 -13 -25 -10 -10 7 -46 -43 -37 -51 3 -4 25 13
48 35 23 23 39 42 36 42 -4 0 -14 -7 -22 -16z"/>
<path d="M6348 5916 c-28 -21 -21 -28 12 -11 17 9 30 18 30 20 0 10 -25 4 -42
-9z"/>
<path d="M6919 5882 c-59 -47 -70 -64 -74 -118 -3 -49 9 -56 43 -24 12 11 27
20 33 20 7 0 -9 -20 -34 -44 -40 -37 -61 -76 -42 -76 14 0 72 35 93 56 13 12
32 22 43 21 27 -2 24 -11 -8 -28 -16 -8 -39 -24 -53 -36 -14 -13 -28 -23 -31
-23 -3 0 -16 -9 -28 -19 -23 -20 -25 -58 -3 -53 8 1 7 -7 -4 -23 -22 -34 -10
-44 27 -22 17 9 38 17 47 17 15 0 15 2 2 10 -9 6 -10 10 -3 10 6 0 19 7 27 16
9 9 16 11 16 4 0 -6 5 -8 11 -5 6 4 8 13 5 20 -3 9 2 11 17 7 21 -5 21 -5 5
11 -21 21 -42 22 -58 2 -17 -20 -31 -19 -23 3 11 29 30 44 37 29 5 -9 7 -9 12
1 3 6 14 12 24 12 24 0 37 20 13 20 -16 1 -16 2 -3 13 22 17 22 117 0 110 -8
-2 -5 3 8 13 27 20 29 38 2 31 -11 -3 -20 -3 -20 -1 0 3 9 14 20 26 26 28 26
58 0 58 -13 0 -18 -5 -14 -15 4 -8 1 -15 -5 -15 -6 0 -28 -16 -48 -35 -41 -38
-53 -43 -53 -20 0 9 11 20 25 25 14 5 25 16 25 24 0 8 8 20 18 25 9 6 13 10 7
10 -5 0 -31 -17 -56 -37z m81 -66 c0 -3 -4 -8 -10 -11 -5 -3 -10 -1 -10 4 0 6
5 11 10 11 6 0 10 -2 10 -4z m-25 -36 c-3 -5 -10 -10 -16 -10 -5 0 -9 5 -9 10
0 6 7 10 16 10 8 0 12 -4 9 -10z m-72 -207 c-7 -2 -19 -2 -25 0 -7 3 -2 5 12
5 14 0 19 -2 13 -5z"/>
<path d="M6308 5847 c-33 -24 -54 -47 -51 -54 4 -9 9 -10 17 -4 7 6 21 8 33 5
11 -3 24 -1 28 6 11 17 -3 24 -20 10 -8 -7 -15 -9 -15 -4 0 5 17 23 37 41 57
47 36 48 -29 0z"/>
<path d="M6369 5850 c-13 -10 -19 -19 -13 -20 7 0 22 9 35 20 13 10 19 19 13
20 -7 0 -22 -9 -35 -20z"/>
<path d="M6400 5804 c-20 -20 -90 -65 -90 -58 0 3 10 14 23 25 20 17 20 18 2
12 -28 -9 -56 -34 -49 -44 10 -17 37 -9 88 28 68 48 73 53 56 52 -8 0 -22 -7
-30 -15z"/>
<path d="M6440 5755 c-7 -8 -18 -15 -24 -15 -6 0 -17 -9 -24 -20 -7 -11 -10
-20 -7 -20 11 0 85 53 85 61 0 14 -16 10 -30 -6z"/>
<path d="M6360 5731 c-46 -30 -62 -48 -50 -56 7 -5 27 7 48 28 40 40 41 54 2
28z"/>
<path d="M6460 5720 c0 -5 -5 -10 -10 -10 -6 0 -16 -5 -23 -10 -7 -6 -31 -24
-54 -40 -29 -20 -41 -35 -37 -45 4 -9 9 -13 12 -10 3 3 15 -3 26 -12 12 -10
16 -12 10 -4 -15 16 -7 49 15 56 21 9 87 85 72 85 -6 0 -11 -4 -11 -10z"/>
<path d="M6421 5641 c-20 -19 -29 -35 -25 -45 4 -10 0 -18 -10 -22 -19 -7 -20
-29 -5 -73 13 -37 25 -40 34 -8 3 12 10 31 14 42 26 66 31 89 18 97 -8 5 -8 8
-1 8 7 0 14 7 18 15 9 24 -9 18 -43 -14z m14 -32 c-4 -5 -13 -9 -22 -9 -13 0
-13 3 -3 15 13 15 35 11 25 -6z"/>
<path d="M6911 5508 c-35 -24 -71 -54 -80 -68 l-16 -25 35 25 c59 42 122 70
164 74 5 1 11 7 14 15 3 9 -1 11 -17 6 -12 -4 -21 -2 -21 4 0 18 -14 13 -79
-31z"/>
<path d="M6957 5482 c-10 -2 -29 -14 -44 -28 -14 -13 -30 -21 -36 -17 -5 3 -7
1 -3 -5 3 -5 0 -13 -6 -16 -7 -3 16 -3 52 0 81 7 123 22 116 41 -4 8 -6 19 -6
25 0 6 -11 3 -24 -6 -19 -12 -25 -12 -28 -3 -2 7 -11 11 -21 9z"/>
<path d="M4979 6529 c-13 -18 -32 -41 -41 -52 -21 -23 -23 -43 -6 -53 7 -5 8
-3 3 6 -5 8 -2 17 7 24 8 6 17 19 21 29 4 11 16 21 27 24 11 3 17 9 14 14 -3
5 0 9 5 9 6 0 11 7 11 15 0 24 -15 18 -41 -16z"/>
<path d="M4996 6479 c-11 -10 -17 -22 -13 -25 3 -3 18 6 32 20 14 14 20 26 13
25 -7 0 -22 -9 -32 -20z"/>
<path d="M5001 6445 c-13 -14 -29 -25 -37 -25 -8 0 -14 -7 -14 -15 0 -9 -8
-19 -17 -22 -10 -4 -23 -14 -30 -22 -15 -19 -17 -61 -3 -61 6 0 10 4 10 10 0
12 41 50 54 50 5 0 -1 -12 -15 -27 -17 -20 -13 -18 12 5 20 19 39 30 42 25 4
-6 -12 -27 -33 -47 -39 -37 -58 -74 -22 -44 38 33 45 30 14 -6 -18 -21 -30
-41 -27 -44 7 -7 64 57 65 71 0 4 13 19 29 34 24 23 27 29 14 38 -12 9 -12 14
1 39 10 21 12 35 5 48 -13 24 -19 23 -48 -7z m4 -55 c-3 -5 -10 -10 -16 -10
-5 0 -9 5 -9 10 0 6 7 10 16 10 8 0 12 -4 9 -10z"/>
<path d="M5030 6260 c-59 -68 -73 -90 -61 -90 6 0 11 4 11 8 0 5 23 35 50 66
46 53 56 66 47 66 -2 0 -23 -23 -47 -50z"/>
<path d="M4855 6238 c-4 -13 -14 -39 -22 -58 -8 -19 -19 -44 -24 -55 -43 -102
-101 -299 -91 -309 7 -8 271 -7 300 0 18 5 22 13 20 33 -2 17 -9 26 -20 25
-13 -1 -17 7 -16 35 0 53 -32 122 -54 115 -13 -4 -18 0 -18 15 0 12 5 21 11
21 7 0 9 10 5 28 -4 15 -8 34 -9 42 -2 9 -5 20 -9 25 -3 6 -8 22 -12 38 -3 15
-11 27 -16 27 -6 0 -10 9 -10 20 0 27 -27 25 -35 -2z"/>
<path d="M5057 6228 c-14 -18 -39 -48 -56 -67 -29 -32 -41 -62 -23 -60 4 0 23
20 42 44 19 24 45 49 58 56 13 7 22 22 22 36 0 32 -13 29 -43 -9z"/>
<path d="M5059 6142 c-46 -47 -75 -90 -66 -98 2 -3 23 16 45 41 41 47 59 55
68 31 6 -15 -16 -56 -52 -96 -26 -29 -42 -80 -25 -80 22 0 131 126 131 152 0
23 -31 60 -46 54 -17 -6 -17 -1 -4 25 18 32 -2 21 -51 -29z"/>
<path d="M5128 6008 c-18 -24 -37 -47 -43 -53 -6 -5 -17 -19 -24 -30 -8 -11
14 9 48 43 53 56 72 82 57 82 -2 0 -19 -19 -38 -42z"/>
<path d="M5131 5950 c-49 -49 -79 -90 -65 -90 3 0 16 12 27 28 12 15 39 46 61
70 53 58 38 53 -23 -8z"/>
<path d="M5175 5923 c-14 -15 -25 -31 -25 -35 0 -5 -6 -8 -12 -8 -19 -1 -61
-71 -50 -82 6 -6 21 5 38 29 16 21 44 52 62 69 31 31 41 54 22 54 -5 0 -21
-12 -35 -27z"/>
<path d="M5213 5872 c-106 -109 -133 -152 -98 -152 8 0 15 4 15 8 0 5 27 37
60 72 56 59 73 90 50 90 -5 0 -18 -8 -27 -18z"/>
<path d="M5223 5782 c-12 -15 -38 -45 -57 -67 -20 -22 -36 -44 -36 -48 0 -14
23 -2 34 17 6 10 30 38 54 62 39 41 52 64 35 64 -5 0 -18 -13 -30 -28z"/>
<path d="M5201 5680 c-49 -55 -60 -73 -53 -87 9 -15 11 -14 21 5 6 11 29 42
51 67 22 25 45 55 50 66 21 38 -7 18 -69 -51z"/>
<path d="M5264 5662 c-32 -49 -79 -102 -91 -102 -7 0 -10 -7 -7 -15 6 -15 34
-21 34 -7 0 4 22 30 50 57 47 48 61 77 41 89 -5 3 -17 -7 -27 -22z"/>
<path d="M5254 5565 c-42 -47 -72 -95 -60 -95 2 0 25 21 50 46 28 29 51 44 60
41 9 -4 18 -2 21 3 4 6 -2 10 -12 11 -10 0 -13 3 -5 6 14 5 17 43 3 43 -5 0
-31 -25 -57 -55z"/>
<path d="M5305 5505 c-16 -13 -27 -27 -23 -30 3 -3 19 5 34 19 38 32 28 41
-11 11z"/>
<path d="M5420 5469 c0 -5 5 -7 10 -4 6 3 10 8 10 11 0 2 -4 4 -10 4 -5 0 -10
-5 -10 -11z"/>
<path d="M5329 5434 c-13 -14 -17 -23 -9 -19 13 5 46 45 37 45 -2 0 -14 -11
-28 -26z"/>
<path d="M5217 5415 c-31 -38 -23 -49 10 -12 26 29 36 47 26 47 -4 0 -21 -16
-36 -35z"/>
<path d="M4549 5423 c-13 -16 -12 -17 4 -4 9 7 17 15 17 17 0 8 -8 3 -21 -13z"/>
<path d="M5362 5410 c-12 -12 -22 -23 -22 -26 0 -7 38 15 45 27 13 20 -1 19
-23 -1z"/>
<path d="M5285 5380 c-3 -5 -1 -10 4 -10 6 0 11 5 11 10 0 6 -2 10 -4 10 -3 0
-8 -4 -11 -10z"/>
</g>
</svg>
