<?xml version="1.0" standalone="no"?>
<!DOCTYPE svg PUBLIC "-//W3C//DTD SVG 20010904//EN"
 "http://www.w3.org/TR/2001/REC-SVG-20010904/DTD/svg10.dtd">
<svg version="1.0" xmlns="http://www.w3.org/2000/svg"
 width="896.000000pt" height="896.000000pt" viewBox="0 0 896.000000 896.000000"
 preserveAspectRatio="xMidYMid meet">
<metadata>
Created by potrace 1.11, written by Peter Selinger 2001-2013
</metadata>
<g transform="translate(0.000000,896.000000) scale(0.100000,-0.100000)"
fill="#000000" stroke="none">
<path d="M2796 5641 c-15 -17 -132 -351 -516 -1481 -81 -239 -155 -452 -163
-472 l-16 -38 -108 0 c-72 0 -113 -4 -121 -12 -8 -8 -12 -60 -12 -168 0 -108
4 -160 12 -168 9 -9 111 -12 400 -12 373 0 388 1 398 19 13 26 13 296 0 322
-9 17 -22 19 -105 19 -51 0 -96 3 -98 8 -3 4 21 81 53 172 l57 165 388 0 387
0 59 -170 c32 -93 59 -171 59 -172 0 -2 -44 -3 -98 -3 -63 0 -102 -4 -110 -12
-17 -17 -17 -319 0 -336 17 -17 899 -17 916 0 8 8 12 60 12 168 0 108 -4 160
-12 168 -8 8 -53 12 -136 12 l-123 0 -13 33 c-7 17 -161 462 -342 987 -181
525 -337 963 -346 972 -16 16 -40 18 -211 18 -177 0 -195 -2 -211 -19z m393
-1116 c21 -66 42 -130 45 -142 l7 -23 -281 0 c-222 0 -281 3 -277 13 2 6 48
147 101 312 54 165 116 356 138 424 l41 124 94 -294 c52 -162 111 -348 132
-414z"/>
<path d="M4330 5641 c-5 -11 -10 -85 -10 -170 0 -123 3 -152 16 -165 12 -12
38 -16 115 -16 l99 0 -2 -817 -3 -818 -100 -3 c-79 -2 -103 -6 -112 -19 -16
-21 -18 -295 -3 -324 10 -18 25 -19 386 -19 l374 0 10 26 c6 14 10 83 10 154
0 71 -4 140 -10 154 -9 26 -10 26 -130 26 l-120 0 0 653 c1 546 3 647 14 622
7 -17 149 -377 316 -800 166 -424 308 -782 316 -796 7 -15 21 -29 29 -33 9 -3
79 -6 154 -6 127 0 139 2 157 21 10 11 166 388 346 837 l327 817 1 -657 0
-658 -113 0 c-75 0 -117 -4 -125 -12 -8 -8 -12 -60 -12 -168 0 -108 4 -160 12
-168 17 -17 799 -17 816 0 18 18 17 322 -1 336 -7 6 -58 13 -113 14 l-99 3 0
815 0 815 99 3 c55 1 106 8 113 14 18 14 19 328 1 346 -9 9 -95 12 -324 12
-303 0 -313 -1 -327 -20 -8 -11 -171 -420 -362 -908 -192 -488 -351 -890 -355
-895 -4 -4 -161 395 -350 888 -188 492 -349 904 -357 915 -14 19 -24 20 -343
20 -315 0 -330 -1 -340 -19z"/>
</g>
</svg>
